HIERARCHY
ROOT Pelvis
{
	OFFSET 0.000000 0.000000 0.000000
	CHANNELS 6 Xposition Yposition Zposition Xrotation Yrotation Zrotation
	JOINT LeftUpLeg_virtual
	{
		OFFSET 0.000000 0.000000 0.000000
		CHANNELS 3 Xrotation Yrotation Zrotation
		JOINT LeftUpLeg
		{
			OFFSET 18.735201 -5.666702 -4.541200
			CHANNELS 3 Xrotation Yrotation Zrotation
			JOINT LeftLeg
			{
				OFFSET -0.021200 -31.938179 0.493100
				CHANNELS 3 Xrotation Yrotation Zrotation
				JOINT LeftFoot
				{
					OFFSET 0.021200 -31.938179 -4.336299
					CHANNELS 3 Xrotation Yrotation Zrotation
					JOINT LeftToeBase
					{
						OFFSET 0.943001 -26.722000 15.023500
						CHANNELS 3 Xrotation Yrotation Zrotation
						End Site
						{
							OFFSET 0 0 0
						}
					}
				}
			}
		}
	}
	JOINT RightUpLeg_virtual
	{
		OFFSET 0.000000 0.000000 0.000000
		CHANNELS 3 Xrotation Yrotation Zrotation
		JOINT RightUpLeg
		{
			OFFSET -18.735201 -5.666702 -4.541200
			CHANNELS 3 Xrotation Yrotation Zrotation
			JOINT RightLeg
			{
				OFFSET 0.018946 -31.938133 0.493100
				CHANNELS 3 Xrotation Yrotation Zrotation
				JOINT RightFoot
				{
					OFFSET -0.018946 -31.938126 -4.336299
					CHANNELS 3 Xrotation Yrotation Zrotation
					JOINT RightToeBase
					{
						OFFSET -0.943001 -26.722004 15.023500
						CHANNELS 3 Xrotation Yrotation Zrotation
						End Site
						{
							OFFSET 0 0 0
						}
					}
				}
			}
		}
	}
	JOINT Hips_virtual
	{
		OFFSET 0.000000 0.000000 0.000000
		CHANNELS 3 Xrotation Yrotation Zrotation
		JOINT Hips
		{
			OFFSET -0.000000 -0.000000 -0.000000
			CHANNELS 3 Xrotation Yrotation Zrotation
			JOINT Spine
			{
				OFFSET 0.000000 10.199997 -0.299500
				CHANNELS 3 Xrotation Yrotation Zrotation
				JOINT Spine1
				{
					OFFSET 0.000000 11.900002 -1.516600
					CHANNELS 3 Xrotation Yrotation Zrotation
					JOINT Spine2
					{
						OFFSET 0.000000 13.600006 -2.842500
						CHANNELS 3 Xrotation Yrotation Zrotation
						JOINT Neck_virtual
						{
							OFFSET 0.000000 0.000000 0.000000
							CHANNELS 3 Xrotation Yrotation Zrotation
							JOINT Neck
							{
								OFFSET 0.000000 9.624100 -2.890100
								CHANNELS 3 Xrotation Yrotation Zrotation
								JOINT Head
								{
									OFFSET 0.000000 14.068802 -1.351900
									CHANNELS 3 Xrotation Yrotation Zrotation
									End Site
									{
										OFFSET 0 0 0
									}
								}
							}
						}
						JOINT LeftShoulder_virtual
						{
							OFFSET 0.000000 0.000000 0.000000
							CHANNELS 3 Xrotation Yrotation Zrotation
							JOINT LeftShoulder
							{
								OFFSET 15.263000 10.923401 -0.547700
								CHANNELS 3 Xrotation Yrotation Zrotation
								JOINT LeftArm
								{
									OFFSET 25.438599 -2.830597 -13.032500
									CHANNELS 3 Xrotation Yrotation Zrotation
									JOINT LeftForeArm
									{
										OFFSET 29.960503 0.000000 0.000000
										CHANNELS 3 Xrotation Yrotation Zrotation
										JOINT LeftHand
										{
											OFFSET 27.849251 0.000000 0.000000
											CHANNELS 3 Xrotation Yrotation Zrotation
											End Site
											{
												OFFSET 0 0 0
											}
										}
									}
								}
							}
						}
						JOINT RightShoulder_virtual
						{
							OFFSET 0.000000 0.000000 0.000000
							CHANNELS 3 Xrotation Yrotation Zrotation
							JOINT RightShoulder
							{
								OFFSET -15.263000 10.923401 -0.547700
								CHANNELS 3 Xrotation Yrotation Zrotation
								JOINT RightArm
								{
									OFFSET -25.438599 -2.830597 -13.032500
									CHANNELS 3 Xrotation Yrotation Zrotation
									JOINT RightForeArm
									{
										OFFSET -29.960503 0.000000 0.000000
										CHANNELS 3 Xrotation Yrotation Zrotation
										JOINT RightHand
										{
											OFFSET -27.849251 0.000000 0.000000
											CHANNELS 3 Xrotation Yrotation Zrotation
											End Site
											{
												OFFSET 0 0 0
											}
										}
									}
								}
							}
						}
					}
				}
			}
		}
	}
}
MOTION
Frames: 8
Frame Time: 0.03333333
-4.310809 93.125717 -3.778625 0.000000 0.000000 0.000000 -7.462073 0.022883 3.646866 -10.920432 9.794820 -2.917537 27.293263 -0.152577 -0.596014 -5.337944 6.448182 2.352393 0.000000 0.000000 0.000000 -7.922715 1.239390 2.733603 -14.083930 -14.167743 -15.785044 29.496418 1.471283 0.414481 -11.121066 -14.085795 8.093351 0.000000 0.000000 0.000000 -8.043209 0.339388 3.728672 0.442788 -0.335063 -1.013876 7.261814 2.238952 -2.827017 14.924766 3.195421 -2.680802 0.000000 0.000000 0.000000 14.083839 3.117199 -3.330421 6.275538 0.111604 -0.887250 0.000000 0.000000 0.000000 14.696057 3.308183 -3.209470 -2.400046 -20.053224 -24.913759 -9.369448 -47.082953 -37.494945 13.566679 -24.372741 4.054487 0.000000 0.000000 0.000000 15.187704 3.124041 -3.596885 -0.667083 23.633935 18.681133 -8.989158 17.626813 52.334525 39.195102 33.909598 -16.658703 0.000000 0.000000 0.000000 
-3.667996 93.452805 -3.540264 0.000000 0.000000 0.000000 -9.017237 -1.597129 4.403038 -6.584039 10.890511 -4.651838 23.669585 -0.150370 -0.750248 -6.251735 6.258309 2.727946 0.000000 0.000000 0.000000 -9.564993 -0.140802 3.528897 -12.242737 -14.121046 -16.656764 28.235666 1.866394 0.277017 -10.310496 -13.416355 8.606586 0.000000 0.000000 0.000000 -9.749729 -1.137775 4.377701 0.265883 -0.202315 -1.125536 7.172780 2.507464 -3.396580 13.276905 3.180545 -2.769085 0.000000 0.000000 0.000000 12.290632 3.144999 -3.398474 5.903810 0.105620 -0.763478 0.000000 0.000000 0.000000 13.077787 3.338626 -3.222016 -1.236386 -17.734071 -21.840469 -8.355088 -46.040898 -40.159914 12.683456 -22.905524 3.948264 0.000000 0.000000 0.000000 13.489580 3.106010 -3.694788 0.019846 22.132562 17.960893 -3.615731 19.667484 51.852436 38.502941 35.843849 -16.769235 0.000000 0.000000 0.000000 
-3.170972 93.615120 -3.249580 0.000000 0.000000 0.000000 -10.173836 -2.883164 4.897635 -3.610088 11.799722 -6.138596 21.449084 -0.008531 -0.849934 -6.621181 6.288099 3.391965 0.000000 0.000000 0.000000 -10.666291 -1.373115 4.113256 -11.078482 -14.170883 -17.424212 27.736587 2.042753 0.338469 -10.479813 -13.134513 8.882879 0.000000 0.000000 0.000000 -10.932984 -2.304121 4.822227 0.198980 -0.064792 -1.180477 6.931339 2.633076 -3.886014 11.690012 3.085293 -2.817374 0.000000 0.000000 0.000000 10.562278 3.087043 -3.419065 5.552539 0.108976 -0.614590 0.000000 0.000000 0.000000 11.529878 3.267180 -3.189647 -0.103999 -15.816985 -18.536602 -5.076900 -43.294315 -40.250919 12.994285 -24.289859 3.617848 0.000000 0.000000 0.000000 11.881141 3.011219 -3.790859 0.791429 20.327826 16.578350 1.157019 20.298721 51.297248 38.242229 39.721208 -17.342882 0.000000 0.000000 0.000000 
-2.842232 93.680397 -2.933920 0.000000 0.000000 0.000000 -10.956323 -3.650168 5.168235 -2.200130 12.536356 -7.077424 20.982838 0.214312 -0.885216 -6.622092 6.448388 4.209752 0.000000 0.000000 0.000000 -11.290842 -2.275485 4.470197 -10.304562 -14.445042 -18.088930 27.568119 2.030407 0.546985 -11.065895 -13.121091 9.310084 0.000000 0.000000 0.000000 -11.644721 -3.058828 5.131687 0.199843 0.134650 -1.280262 6.495490 2.634127 -4.148415 10.277637 2.962680 -2.873083 0.000000 0.000000 0.000000 9.046452 2.973227 -3.459211 5.211084 0.120299 -0.463834 0.000000 0.000000 0.000000 10.111420 3.143105 -3.182523 0.924040 -14.259417 -15.351180 -1.297928 -38.961581 -39.326822 14.359641 -27.316153 3.170335 0.000000 0.000000 0.000000 10.458842 2.899808 -3.903542 1.547498 18.329463 14.322476 3.646073 19.890197 52.030827 37.927846 43.382264 -17.807188 0.000000 0.000000 0.000000 
-2.607957 93.687630 -2.680672 0.000000 0.000000 0.000000 -11.369516 -3.924970 5.292006 -1.887460 13.054494 -7.442783 21.595149 0.257101 -0.874640 -6.717113 6.389358 4.776027 0.000000 0.000000 0.000000 -11.568167 -2.797518 4.667907 -9.824374 -14.722372 -18.636357 27.362505 2.022656 0.714873 -11.298782 -13.107129 10.046378 0.000000 0.000000 0.000000 -11.955486 -3.435248 5.345658 0.367392 0.319175 -1.319206 5.838753 2.558792 -4.137803 9.176223 2.841152 -2.955105 0.000000 0.000000 0.000000 7.843528 2.856819 -3.527746 4.863778 0.144126 -0.331922 0.000000 0.000000 0.000000 8.865307 3.030359 -3.223785 1.768352 -13.222955 -12.699219 0.407796 -33.174987 -39.423545 16.411633 -29.507602 2.629630 0.000000 0.000000 0.000000 9.270419 2.801564 -4.016944 2.187763 16.355260 11.488914 3.565764 18.718338 54.078077 37.030130 45.065988 -17.553617 0.000000 0.000000 0.000000 
-2.454917 93.673706 -2.482731 0.000000 0.000000 0.000000 -11.478321 -3.881052 5.341752 -2.023099 13.322438 -7.393710 22.475868 0.104906 -0.843645 -6.778151 6.052039 4.902731 0.000000 0.000000 0.000000 -11.623589 -2.932767 4.732536 -9.507935 -14.777405 -19.026269 27.184431 2.104710 0.788086 -11.217500 -12.998443 10.969840 0.000000 0.000000 0.000000 -11.997759 -3.501959 5.467763 0.568571 0.189049 -1.416984 5.064497 2.409646 -3.892980 8.358843 2.766234 -3.052318 0.000000 0.000000 0.000000 6.959217 2.788664 -3.584713 4.507519 0.176099 -0.234609 0.000000 0.000000 0.000000 7.856165 2.975139 -3.285680 2.401089 -12.604713 -10.705890 -1.050486 -26.378599 -41.419947 18.637546 -28.973249 1.901173 0.000000 0.000000 0.000000 8.307957 2.764838 -4.085046 2.573796 14.686824 8.751933 1.713093 16.512394 56.895448 35.406444 44.191638 -16.271652 0.000000 0.000000 0.000000 
-2.313278 93.668549 -2.207394 0.000000 0.000000 0.000000 -11.349111 -3.714208 5.341892 -2.147260 13.491721 -7.147060 23.033087 -0.042878 -0.848899 -6.622266 5.578463 4.648703 0.000000 0.000000 0.000000 -11.538199 -2.843526 4.721682 -9.421496 -14.719783 -19.352859 27.268132 2.164961 0.819732 -11.074259 -12.922914 11.733565 0.000000 0.000000 0.000000 -11.884157 -3.403634 5.471435 0.615977 -0.007851 -1.467874 4.232748 2.257453 -3.512377 7.791463 2.745882 -3.108424 0.000000 0.000000 0.000000 6.353968 2.788966 -3.582183 4.152845 0.203078 -0.175001 0.000000 0.000000 0.000000 7.072645 2.974885 -3.315387 2.840243 -12.338695 -9.221113 -5.111194 -19.021356 -44.839417 20.690858 -25.492563 0.974594 0.000000 0.000000 0.000000 7.530072 2.791521 -4.046248 2.700239 13.423816 6.935305 -0.492835 13.209424 59.595654 33.671490 41.485886 -14.515800 0.000000 0.000000 0.000000 
-2.171581 93.681602 -1.879524 0.000000 0.000000 0.000000 -11.096349 -3.589252 5.273476 -2.050552 13.624050 -6.901442 23.011380 -0.078877 -0.905480 -6.086318 5.096071 4.204095 0.000000 0.000000 0.000000 -11.402464 -2.638307 4.640023 -9.545764 -14.604239 -19.541675 27.613475 2.102113 0.833824 -11.015660 -13.006658 12.004102 0.000000 0.000000 0.000000 -11.682141 -3.292133 5.348417 0.614942 -0.265879 -1.486972 3.472955 2.077411 -3.104927 7.385477 2.754889 -3.095118 0.000000 0.000000 0.000000 5.922434 2.832449 -3.500927 3.790771 0.224684 -0.144931 0.000000 0.000000 0.000000 6.486967 2.997937 -3.285346 3.132666 -12.428543 -8.113788 -10.140068 -11.212105 -48.664869 22.702941 -20.700531 0.030441 0.000000 0.000000 0.000000 6.902669 2.853478 -3.887869 2.616530 12.672091 6.336944 -2.097243 9.008418 61.662401 32.526102 38.334915 -12.911029 0.000000 0.000000 0.000000 
